<svg xmlns="http://www.w3.org/2000/svg" viewBox="0 0 512 512" id="climate-monitor"><path d="M177.67 391.72a9.83 9.83 0 1 0 9.83 9.82 9.84 9.84 0 0 0-9.83-9.82Zm0 15.65a5.83 5.83 0 1 1 5.83-5.83 5.84 5.84 0 0 1-5.83 5.83Z"></path><path d="M448 172.35a80.1 80.1 0 0 0-157.06-22.22 82.08 82.08 0 0 0-23.08 3.36 96.51 96.51 0 0 0-172.78 70.58 62.12 62.12 0 0 0-31 52.44v2h47.33v126.22a14.34 14.34 0 0 0 14.32 14.33h103.14a14.35 14.35 0 0 0 14.32-14.33v-49.3h106.56v-4H243.19v-36.19A16.79 16.79 0 0 1 252.1 330v6.62h4V330a20.8 20.8 0 0 0-12.91-19.21v-32.24h181.93l-.05-2a54.84 54.84 0 0 0-14.68-36.29A79.54 79.54 0 0 0 448 172.35Zm-208.78 42.8H115.36v-14.47a10.33 10.33 0 0 1 10.32-10.33h103.19a10.33 10.33 0 0 1 10.32 10.33Zm-123.83 4h123.8v90.5a20.45 20.45 0 0 0-3.86-.38h-.49a20.77 20.77 0 0 0-18.48 11.35h-80v4h78.45a20.61 20.61 0 0 0-.74 5.42 25.2 25.2 0 0 0 .55 5.25h-78.25v4h79.46a25.4 25.4 0 0 0 23.36 16.13v29.3H115.36Zm123.8 132.27A21.41 21.41 0 0 1 218.08 330a16.79 16.79 0 0 1 16.76-16.77h.49a16.92 16.92 0 0 1 3.86.47Zm-10.32 63.64H125.68a10.33 10.33 0 0 1-10.32-10.33v-16h123.83v16a10.33 10.33 0 0 1-10.32 10.33Zm14.32-140.51v-73.87a14.35 14.35 0 0 0-14.32-14.33H125.68a14.34 14.34 0 0 0-14.32 14.33v73.87H68.15A58.1 58.1 0 0 1 98.2 226.9l1.22-.66-.2-1.37a93.58 93.58 0 0 1-1-13.24A92.51 92.51 0 0 1 265.45 157l.85 1.15 1.37-.43a78.11 78.11 0 0 1 101.22 67.22l.17 1.79h1.8A50.8 50.8 0 0 1 421 274.55Zm164.3-37.23a54.79 54.79 0 0 0-34.8-14.51 82.08 82.08 0 0 0-77.63-72.59 76.1 76.1 0 1 1 112.43 87.1Z"></path><path d="M197.85 290.08a26.27 26.27 0 1 0-26.26-26.26 26.3 26.3 0 0 0 26.26 26.26Zm0-48.53a22.27 22.27 0 1 1-22.26 22.27 22.29 22.29 0 0 1 22.26-22.27ZM136.37 349.96h81.17v4h-81.17zM136.37 364.63h81.17v4h-81.17zM303.47 312.11v-6.63a20.79 20.79 0 0 0-20.77-20.76h-.48a20.79 20.79 0 0 0-20.77 20.76 25.42 25.42 0 0 0 25.39 25.39h110.28v-4H286.84a21.41 21.41 0 0 1-21.39-21.39 16.78 16.78 0 0 1 16.77-16.76h.48a16.78 16.78 0 0 1 16.77 16.76v6.63zM286 399a20.8 20.8 0 0 0 20.77 20.77h.48A20.79 20.79 0 0 0 328 399v-6.62h-4V399a16.79 16.79 0 0 1-16.77 16.77h-.48A16.79 16.79 0 0 1 290 399a21.42 21.42 0 0 1 21.39-21.39h110.24v-4H311.35A25.42 25.42 0 0 0 286 399zM149.94 286.66a13.53 13.53 0 0 0 12.5-18.7l-10.65-25.75a2 2 0 0 0-3.7 0L137.44 268a13.53 13.53 0 0 0 12.5 18.7zm-8.8-17.17 8.8-21.28 8.8 21.28a9.53 9.53 0 1 1-17.6 0z"></path></svg>