<svg xmlns="http://www.w3.org/2000/svg" viewBox="0 0 512 512" id="green-city"><g data-name="Layer 2"><g data-name="5333 - Green City"><path d="M256,512c-68.34,0-132.6-26.08-180.95-73.44S0,328.1,0,261a10,10,0,0,1,10-10H502a10,10,0,0,1,10,10c0,67.08-26.65,130.13-75.05,177.54S324.34,512,256,512ZM20.22,271C25.59,393.76,129.29,492,256,492s230.41-98.24,235.78-221Z"></path><path d="M423.23 447.74H345.72a75.33 75.33 0 01-53-21.54A72.63 72.63 0 01270.6 374c0-40.69 33.7-73.79 75.12-73.79h.66q-.83-.75-1.62-1.53a73.48 73.48 0 01-20.08-35.28 10 10 0 0119.45-4.66 53.4 53.4 0 0014.63 25.65 55.47 55.47 0 0039.05 15.82 10 10 0 010 20H345.72c-30.39 0-55.12 24.13-55.12 53.79a52.8 52.8 0 0016.07 38 55.45 55.45 0 0039.05 15.83h77.51a10 10 0 010 20zM115.43 413.64H57.69a10 10 0 010-20h57.74c13.86 0 25.14-11 25.14-24.42a23.69 23.69 0 00-3.4-12.26 24.86 24.86 0 00-9-8.82 10 10 0 015-18.69H147c30.39 0 55.12-24.12 55.12-53.77a52.55 52.55 0 00-1.45-12.31 10 10 0 0119.44-4.7 72.16 72.16 0 012 17c0 37.81-29.12 69.07-66.5 73.29a43.73 43.73 0 015 20.25C160.57 393.71 140.32 413.64 115.43 413.64z"></path><path d="M431.71,271H321.26a10,10,0,0,1-10-10V10a10,10,0,0,1,10-10H431.71a10,10,0,0,1,10,10V261A10,10,0,0,1,431.71,271ZM331.26,251h90.45V20H331.26Z"></path><path d="M492 271H431.71a10 10 0 01-10-10V140.53A10 10 0 01434.88 131l60.24 20.08a10 10 0 016.84 9.49V261A10 10 0 01492 271zm-50.25-20H482v-83.2L441.71 154.4zM391.55 60.16H361.43a10 10 0 010-20h30.12a10 10 0 010 20zM391.55 102.84H361.43a10 10 0 010-20h30.12a10 10 0 010 20zM391.55 145.51H361.43a10 10 0 010-20h30.12a10 10 0 110 20zM391.55 188.18H361.43a10 10 0 010-20h30.12a10 10 0 010 20zM391.55 230.86H361.43a10 10 0 110-20h30.12a10 10 0 110 20zM281.1 271H170.65a10 10 0 01-10-10V10a10 10 0 0110-10H281.1a10 10 0 0110 10V261A10 10 0 01281.1 271zM180.65 251H271.1V20H180.65z"></path><path d="M240.94 60.16H210.82a10 10 0 010-20h30.12a10 10 0 010 20zM240.94 102.84H210.82a10 10 0 010-20h30.12a10 10 0 010 20zM240.94 145.51H210.82a10 10 0 010-20h30.12a10 10 0 110 20zM240.94 188.18H210.82a10 10 0 010-20h30.12a10 10 0 010 20zM240.94 230.86H210.82a10 10 0 010-20h30.12a10 10 0 010 20zM60.2 271a10 10 0 01-10-10V180.69a10 10 0 0120 0V261A10 10 0 0160.2 271z"></path><path d="M60.2,220.82A50.15,50.15,0,0,1,24.84,135.1a33.7,33.7,0,0,1-1.41-9.63c0-19.36,16.5-35.1,36.77-35.1S97,106.11,97,125.47a33.7,33.7,0,0,1-1.41,9.63A50.15,50.15,0,0,1,60.2,220.82Zm0-110.45c-9.25,0-16.77,6.77-16.77,15.1a13.67,13.67,0,0,0,2.06,7.23,10,10,0,0,1-2.74,13.36,30.17,30.17,0,1,0,34.91,0,10,10,0,0,1-2.74-13.36A13.67,13.67,0,0,0,77,125.47C77,117.14,69.45,110.37,60.2,110.37Z"></path></g></g></svg>