<svg xmlns="http://www.w3.org/2000/svg" enable-background="new 0 0 98 98" viewBox="0 0 98 98" id="property-price"><rect width="1.999" height="11.341" x="41.48" y="67.959" transform="rotate(-147.894 42.477 73.629)"></rect><rect width="3.022" height="2" x="38.762" y="55.057"></rect><rect width="4.896" height="2" x="31.451" y="55.057"></rect><path d="M89.5898,14.7404h1.4199v-2h-1.4199h-6.7197h-1.4199v2h1.4199v2.8393l-7.333-6.0893L53.8418,29.5158h6.2334v20.6338
		H33.0259c4.1691-3.4898,6.5376-8.2543,6.5376-13.2754c0-5.9498-4.0782-13.1902-8.2061-17.9532
		c0.3251-0.2166,0.6046-0.4937,0.8308-0.8118l4.4094,2.8172l1.0762-1.6855l-4.6436-2.9668l4.6436-2.9668l-1.0762-1.6855
		l-4.4094,2.8172c-0.5769-0.811-1.5192-1.345-2.5876-1.345h-0.3134c2.0679-3.0356,3.312-6.863,3.7684-9.5366
		c0.1045-0.6123-0.0664-1.2373-0.4697-1.7148c-0.4092-0.4854-1.0078-0.7637-1.6416-0.7637c-1.0095,0-1.2854,0.3834-2.9434,2.0557
		c-0.5352,0.5342-1.4688,0.5347-2.0059-0.0024c-1.291-1.291-3.543-1.291-4.834,0c-0.5371,0.5361-1.4688,0.5361-2.0059,0
		c-1.291-1.291-3.543-1.2915-4.834,0.0005c-0.5361,0.5361-1.4707,0.5342-2.0049,0l-1.4297-1.4292
		C9.3908,0.2074,6.9799,1.5938,7.1436,3.3943c0.2445,2.7578,1.3757,6.6572,3.6974,9.6997h-0.1212
		c-1.7539,0-3.1807,1.4268-3.1807,3.1802c0,1.1038,0.5665,2.0764,1.423,2.6469c-4.1279,4.7637-8.2062,12.0046-8.2062,17.9532
		c0,5.0208,2.3687,9.7849,6.5378,13.2754H0.7559v11.8149h43.2374L31.8309,81.3532h-4.5135c-2.4766,0-4.4912,2.0151-4.4912,4.4917
		c0,0.9217,0.2805,1.7784,0.7584,2.4922h-7.1832v2c16.9684,0,39.505,0,51.2031,0h10.917v-2H71.338
		c0.4781-0.7138,0.7587-1.5705,0.7587-2.4922c0-2.4766-2.0156-4.4917-4.4922-4.4917H63.089L50.9358,61.9646h45.8201V50.1496h-5.7461
		V29.5158h6.2344l-7.6543-6.3561V14.7404z M84.8701,14.7404h2.7197v6.7585l-2.7197-2.2585V14.7404z M9.127,3.1609
		c0.0254-0.0283,0.1123-0.0645,0.1748-0.082H9.377c0.0371,0,0.0723,0.0146,0.0977,0.04l1.4277,1.4277
		c1.291,1.291,3.542,1.2915,4.833-0.0005c0.5352-0.5352,1.4707-0.5352,2.0059,0c1.291,1.292,3.543,1.292,4.834,0
		c0.5352-0.5352,1.4697-0.5371,2.0068,0.002c1.291,1.29,3.542,1.2905,4.833,0.0015c0.728-0.7343,1.3774-1.4129,1.5293-1.4707
		c0.0596,0,0.0967,0.0332,0.1406,0.1416c-0.5186,3.0322-2.0322,7.1885-4.2803,9.8735H13.4619
		C10.8506,10.4944,9.4092,6.3029,9.127,3.1609z M10.7197,15.094c4.4808,0,13.6697,0,18.8809,0c0.6504,0,1.1797,0.5293,1.1797,1.1802
		s-0.5293,1.1802-1.1797,1.1802H10.7197c-0.6514,0-1.1807-0.5293-1.1807-1.1802S10.0684,15.094,10.7197,15.094z M2.7559,36.8742
		c0-5.7646,4.3027-12.9844,8.4063-17.4199h17.9951c4.1035,4.4346,8.4063,11.6538,8.4063,17.4199
		c0,4.8228-2.5039,9.4033-6.8701,12.5669c-0.6289,0.4565-1.4336,0.7075-2.2646,0.7075H11.8906
		c-0.8311,0-1.6348-0.2515-2.2646-0.7075C5.2598,46.2766,2.7559,41.6965,2.7559,36.8742z M67.6045,83.3532
		c1.374,0,2.4922,1.1177,2.4922,2.4917s-1.1182,2.4922-2.4922,2.4922H27.3174c-1.374,0-2.4912-1.1182-2.4912-2.4922
		s1.1172-2.4917,2.4912-2.4917H67.6045z M60.7275,81.3503H34.1934l12.1597-19.3857h2.2214L60.7275,81.3503z M94.7559,52.1496v7.8149
		h-92v-2.9077h25.1992v-2H2.7559v-2.9072H94.7559z M71.4072,50.1443V37.7336h8.2695v12.4106H71.4072z M91.7051,27.5158h-2.6953
		v3.8516h-3.9346v2h3.9346v4.7266h-3.9717v2h3.9717v10.0503h-7.333v-2.6431h3.9717v-2h-3.9717v-9.7676H69.4072v9.7676h-3.9707v2
		h3.9707v2.6431h-7.332V40.094h3.9707v-2h-3.9707v-4.7266h5v-2h-5v-3.8516h-2.6963l2.6774-2.2246h4.5609v-2h-2.1539l11.0738-9.2012
		l11.0805,9.2012H84.335v2h4.6912L91.7051,27.5158z"></path><path d="M75.542,19.7805c-2.7109,0-4.916,2.2056-4.916,4.917c0,2.7109,2.2051,4.9165,4.916,4.9165s4.917-2.2056,4.917-4.9165
		C80.459,21.9861,78.2529,19.7805,75.542,19.7805z M75.542,27.614c-1.6074,0-2.916-1.3081-2.916-2.9165s1.3086-2.917,2.916-2.917
		c1.6084,0,2.917,1.3086,2.917,2.917S77.1504,27.614,75.542,27.614z"></path><rect width="6" height="2" x="73.075" y="31.367"></rect><path d="M11.7451 28.4206l-1.709-1.0391c-.5088.8374-.9756 1.687-1.3877 2.5254l1.7949.8818C10.8291 30.0036 11.2666 29.2068 11.7451 28.4206zM9.8164 41.1457c-.7871-1.3662-1.1855-2.8032-1.1855-4.2715 0-1.0273.292-2.3574.8438-3.8472l-1.875-.6953c-.6426 1.7344-.9688 3.2627-.9688 4.5425 0 1.7974.502 3.6191 1.4512 5.2695L9.8164 41.1457zM31.6885 36.8742c0 2.001-.7539 3.9727-2.1787 5.7017l1.543 1.2725c1.7246-2.0918 2.6357-4.5034 2.6357-6.9741 0-.6689-.0918-1.4204-.2725-2.2344l-1.9531.4346C31.6123 35.7458 31.6885 36.3513 31.6885 36.8742zM32.6797 32.2258c-.3936-1.0469-.8936-2.1406-1.4863-3.25l-1.7637.9424c.5518 1.0327 1.0156 2.0459 1.3789 3.0117L32.6797 32.2258zM20.3564 39.3723c-1.291 0-2.3418-1.0508-2.3418-2.3423h-2c0 2.049 1.4301 3.7604 3.3418 4.2147v2.7423h2v-2.7423c1.912-.4543 3.3428-2.1658 3.3428-4.2147 0-2.3945-1.9482-4.3423-4.3428-4.3423-1.291 0-2.3418-1.0503-2.3418-2.3418s1.0508-2.3423 2.3418-2.3423c1.292 0 2.3428 1.0508 2.3428 2.3423h2c0-2.049-1.4308-3.7604-3.3428-4.2147v-2.7047h-2v2.7047c-1.9117.4543-3.3418 2.1658-3.3418 4.2147 0 2.394 1.9473 4.3418 4.3418 4.3418 1.292 0 2.3428 1.0508 2.3428 2.3423S21.6484 39.3723 20.3564 39.3723z"></path><rect width="8.053" height="2" x="15.963" y="8.796"></rect><rect width="12.99" height="2" x="77.019" y="65.062"></rect><rect width="5.072" height="2" x="68.881" y="65.062"></rect><rect width="12.989" height="2" x="9.793" y="65.062"></rect><rect width="5.072" height="2" x="25.849" y="65.062"></rect><rect width="2.883" height="2" x="67.434" y="10.553" transform="rotate(-39.249 68.87 11.554)"></rect><rect width="11.063" height="2" x="55.362" y="17.073" transform="rotate(-39.249 60.893 18.073)"></rect><rect width="9.399" height="2" x="64.554" y="94.931"></rect><rect width="23.861" height="2" x="35.787" y="94.931"></rect><rect width="9.952" height="2" x="20.969" y="94.931"></rect></svg>